STARTFONT 2.1
FONT -Fondu--Medium-R-Normal--22-210-75-75-P-103-MacRoman-1
SIZE 21 75 75
FONTBOUNDINGBOX 15 22 -1 -4
COMMENT Created by Fondu from a mac NFNT/FONT resource
STARTPROPERTIES 17
FOUNDRY "Fondu"
FAMILY_NAME ""
WEIGHT_NAME "Medium"
SLANT "R"
SETWIDTH_NAME "Normal"
ADD_STYLE_NAME ""
PIXEL_SIZE 22
POINT_SIZE 210
RESOLUTION_X 75
RESOLUTION_Y 75
SPACING "P"
AVERAGE_WIDTH 103
CHARSET_REGISTRY "MacRoman"
CHARSET_ENCODING "1"
FONT_ASCENT 18
FONT_DESCENT 4
FACE_NAME "nameless"
ENDPROPERTIES
CHARS 229
STARTCHAR Eth
ENCODING 1
SWIDTH 45 0
DWIDTH 1 0
BBX 0 0 1 -4
BITMAP
ENDCHAR
STARTCHAR eth
ENCODING 2
SWIDTH 0 0
DWIDTH 0 0
BBX 0 0 0 -4
BITMAP
ENDCHAR
STARTCHAR Lslash
ENCODING 3
SWIDTH 0 0
DWIDTH 0 0
BBX 0 0 0 -4
BITMAP
ENDCHAR
STARTCHAR lslash
ENCODING 4
SWIDTH 0 0
DWIDTH 0 0
BBX 0 0 0 -4
BITMAP
ENDCHAR
STARTCHAR Scaron
ENCODING 5
SWIDTH 0 0
DWIDTH 0 0
BBX 0 0 0 -4
BITMAP
ENDCHAR
STARTCHAR space
ENCODING 32
SWIDTH 272 0
DWIDTH 6 0
BBX 0 0 -1 -4
BITMAP
ENDCHAR
STARTCHAR exclam
ENCODING 33
SWIDTH 272 0
DWIDTH 6 0
BBX 1 14 3 0
BITMAP
80
80
80
80
80
80
80
80
80
80
00
00
80
80
ENDCHAR
STARTCHAR quotedbl
ENCODING 34
SWIDTH 363 0
DWIDTH 8 0
BBX 4 3 2 11
BITMAP
90
90
90
ENDCHAR
STARTCHAR numbersign
ENCODING 35
SWIDTH 636 0
DWIDTH 14 0
BBX 10 8 2 6
BITMAP
0900
0900
7FC0
1200
1200
FF80
2400
2400
ENDCHAR
STARTCHAR dollar
ENCODING 36
SWIDTH 545 0
DWIDTH 12 0
BBX 7 18 2 -2
BITMAP
10
10
38
54
92
92
90
50
30
18
14
12
92
92
54
38
10
10
ENDCHAR
STARTCHAR percent
ENCODING 37
SWIDTH 636 0
DWIDTH 14 0
BBX 10 14 2 0
BITMAP
6040
9040
9040
9080
9100
6200
0400
0800
1180
2240
4240
8240
8240
8180
ENDCHAR
STARTCHAR ampersand
ENCODING 38
SWIDTH 727 0
DWIDTH 16 0
BBX 12 14 2 0
BITMAP
3800
4400
4400
4400
2800
1000
2800
4400
8220
8140
8080
8140
4220
3C10
ENDCHAR
STARTCHAR quotesingle
ENCODING 39
SWIDTH 136 0
DWIDTH 3 0
BBX 1 3 1 11
BITMAP
80
80
80
ENDCHAR
STARTCHAR parenleft
ENCODING 40
SWIDTH 318 0
DWIDTH 7 0
BBX 4 16 1 -1
BITMAP
10
20
40
40
80
80
80
80
80
80
80
80
40
40
20
10
ENDCHAR
STARTCHAR parenright
ENCODING 41
SWIDTH 318 0
DWIDTH 7 0
BBX 4 16 2 -1
BITMAP
80
40
20
20
10
10
10
10
10
10
10
10
20
20
40
80
ENDCHAR
STARTCHAR asterisk
ENCODING 42
SWIDTH 636 0
DWIDTH 14 0
BBX 8 7 2 3
BITMAP
42
24
18
FF
18
24
42
ENDCHAR
STARTCHAR plus
ENCODING 43
SWIDTH 545 0
DWIDTH 12 0
BBX 9 9 1 2
BITMAP
0800
0800
0800
0800
FF80
0800
0800
0800
0800
ENDCHAR
STARTCHAR comma
ENCODING 44
SWIDTH 272 0
DWIDTH 6 0
BBX 2 4 2 -2
BITMAP
C0
40
40
80
ENDCHAR
STARTCHAR hyphen
ENCODING 45
SWIDTH 454 0
DWIDTH 10 0
BBX 8 1 1 6
BITMAP
FF
ENDCHAR
STARTCHAR period
ENCODING 46
SWIDTH 272 0
DWIDTH 6 0
BBX 1 2 3 0
BITMAP
80
80
ENDCHAR
STARTCHAR slash
ENCODING 47
SWIDTH 454 0
DWIDTH 10 0
BBX 7 14 1 0
BITMAP
02
02
04
04
08
08
10
10
20
20
40
40
80
80
ENDCHAR
STARTCHAR zero
ENCODING 48
SWIDTH 545 0
DWIDTH 12 0
BBX 9 14 1 0
BITMAP
1C00
2200
4100
4100
8080
8080
8080
8080
8080
8080
4100
4100
2200
1C00
ENDCHAR
STARTCHAR one
ENCODING 49
SWIDTH 545 0
DWIDTH 12 0
BBX 3 14 4 0
BITMAP
20
60
A0
20
20
20
20
20
20
20
20
20
20
20
ENDCHAR
STARTCHAR two
ENCODING 50
SWIDTH 545 0
DWIDTH 12 0
BBX 9 14 1 0
BITMAP
3E00
4100
8080
8080
0080
0080
0100
0200
0400
0800
1000
2000
4000
FF80
ENDCHAR
STARTCHAR three
ENCODING 51
SWIDTH 545 0
DWIDTH 12 0
BBX 9 14 1 0
BITMAP
FF80
0100
0200
0400
0800
1E00
0100
0080
0080
0080
8080
8080
4100
3E00
ENDCHAR
STARTCHAR four
ENCODING 52
SWIDTH 545 0
DWIDTH 12 0
BBX 10 14 1 0
BITMAP
0080
0180
0280
0480
0880
1080
2080
4080
8080
FFC0
0080
0080
0080
0080
ENDCHAR
STARTCHAR five
ENCODING 53
SWIDTH 545 0
DWIDTH 12 0
BBX 9 14 1 0
BITMAP
FF80
8000
8000
8000
8000
FE00
0100
0080
0080
0080
8080
8080
4100
3E00
ENDCHAR
STARTCHAR six
ENCODING 54
SWIDTH 545 0
DWIDTH 12 0
BBX 9 14 1 0
BITMAP
0E00
3000
4000
4000
8000
BE00
C100
8080
8080
8080
8080
8080
4100
3E00
ENDCHAR
STARTCHAR seven
ENCODING 55
SWIDTH 545 0
DWIDTH 12 0
BBX 9 14 1 0
BITMAP
FF80
0080
0080
0100
0100
0200
0200
0400
0400
0800
0800
1000
1000
1000
ENDCHAR
STARTCHAR eight
ENCODING 56
SWIDTH 545 0
DWIDTH 12 0
BBX 9 14 1 0
BITMAP
3E00
4100
8080
8080
4100
3E00
4100
8080
8080
8080
8080
8080
4100
3E00
ENDCHAR
STARTCHAR nine
ENCODING 57
SWIDTH 545 0
DWIDTH 12 0
BBX 9 14 1 0
BITMAP
3E00
4100
8080
8080
8080
8080
8080
4180
3E80
0080
0100
0100
0600
3800
ENDCHAR
STARTCHAR colon
ENCODING 58
SWIDTH 272 0
DWIDTH 6 0
BBX 1 10 3 0
BITMAP
80
80
00
00
00
00
00
00
80
80
ENDCHAR
STARTCHAR semicolon
ENCODING 59
SWIDTH 272 0
DWIDTH 6 0
BBX 2 12 2 -2
BITMAP
40
40
00
00
00
00
00
00
C0
40
40
80
ENDCHAR
STARTCHAR less
ENCODING 60
SWIDTH 454 0
DWIDTH 10 0
BBX 5 9 2 2
BITMAP
08
10
20
40
80
40
20
10
08
ENDCHAR
STARTCHAR equal
ENCODING 61
SWIDTH 454 0
DWIDTH 10 0
BBX 8 4 1 5
BITMAP
FF
00
00
FF
ENDCHAR
STARTCHAR greater
ENCODING 62
SWIDTH 454 0
DWIDTH 10 0
BBX 5 9 3 2
BITMAP
80
40
20
10
08
10
20
40
80
ENDCHAR
STARTCHAR question
ENCODING 63
SWIDTH 545 0
DWIDTH 12 0
BBX 8 14 2 0
BITMAP
3C
42
81
81
01
02
04
08
08
08
00
00
08
08
ENDCHAR
STARTCHAR at
ENCODING 64
SWIDTH 727 0
DWIDTH 16 0
BBX 12 12 2 0
BITMAP
0F00
30C0
4020
4F20
9090
9090
9090
9190
4EE0
4000
3000
0F00
ENDCHAR
STARTCHAR A
ENCODING 65
SWIDTH 636 0
DWIDTH 14 0
BBX 11 14 1 0
BITMAP
0400
0400
0400
0A00
0A00
1100
1100
2080
2080
7FC0
4040
4040
8020
8020
ENDCHAR
STARTCHAR B
ENCODING 66
SWIDTH 545 0
DWIDTH 12 0
BBX 9 14 1 0
BITMAP
FC00
8200
8100
8100
8200
FC00
8200
8100
8080
8080
8080
8100
8200
FC00
ENDCHAR
STARTCHAR C
ENCODING 67
SWIDTH 545 0
DWIDTH 12 0
BBX 9 14 1 0
BITMAP
1E00
2100
4080
4000
8000
8000
8000
8000
8000
8000
4000
4080
2100
1E00
ENDCHAR
STARTCHAR D
ENCODING 68
SWIDTH 545 0
DWIDTH 12 0
BBX 9 14 1 0
BITMAP
F800
8600
8100
8100
8080
8080
8080
8080
8080
8080
8100
8100
8600
F800
ENDCHAR
STARTCHAR E
ENCODING 69
SWIDTH 454 0
DWIDTH 10 0
BBX 7 14 1 0
BITMAP
FE
80
80
80
80
80
FC
80
80
80
80
80
80
FE
ENDCHAR
STARTCHAR F
ENCODING 70
SWIDTH 454 0
DWIDTH 10 0
BBX 7 14 1 0
BITMAP
FE
80
80
80
80
80
FC
80
80
80
80
80
80
80
ENDCHAR
STARTCHAR G
ENCODING 71
SWIDTH 545 0
DWIDTH 12 0
BBX 9 14 1 0
BITMAP
1E00
2100
4080
4000
8000
8000
8F80
8080
8080
8080
4080
4080
2100
1E00
ENDCHAR
STARTCHAR H
ENCODING 72
SWIDTH 545 0
DWIDTH 12 0
BBX 9 14 1 0
BITMAP
8080
8080
8080
8080
8080
8080
FF80
8080
8080
8080
8080
8080
8080
8080
ENDCHAR
STARTCHAR I
ENCODING 73
SWIDTH 272 0
DWIDTH 6 0
BBX 1 14 2 0
BITMAP
80
80
80
80
80
80
80
80
80
80
80
80
80
80
ENDCHAR
STARTCHAR J
ENCODING 74
SWIDTH 454 0
DWIDTH 10 0
BBX 8 14 0 0
BITMAP
01
01
01
01
01
01
01
01
01
81
81
81
42
3C
ENDCHAR
STARTCHAR K
ENCODING 75
SWIDTH 545 0
DWIDTH 12 0
BBX 9 14 1 0
BITMAP
8100
8200
8400
8800
9000
A000
C000
A000
9000
8800
8400
8200
8100
8080
ENDCHAR
STARTCHAR L
ENCODING 76
SWIDTH 454 0
DWIDTH 10 0
BBX 7 14 1 0
BITMAP
80
80
80
80
80
80
80
80
80
80
80
80
80
FE
ENDCHAR
STARTCHAR M
ENCODING 77
SWIDTH 636 0
DWIDTH 14 0
BBX 11 14 1 0
BITMAP
8020
C060
A0A0
9120
8A20
8420
8020
8020
8020
8020
8020
8020
8020
8020
ENDCHAR
STARTCHAR N
ENCODING 78
SWIDTH 545 0
DWIDTH 12 0
BBX 9 14 1 0
BITMAP
8080
C080
C080
A080
A080
9080
8880
8880
8480
8280
8280
8180
8180
8080
ENDCHAR
STARTCHAR O
ENCODING 79
SWIDTH 545 0
DWIDTH 12 0
BBX 10 14 1 0
BITMAP
1E00
2100
4080
4080
8040
8040
8040
8040
8040
8040
4080
4080
2100
1E00
ENDCHAR
STARTCHAR P
ENCODING 80
SWIDTH 545 0
DWIDTH 12 0
BBX 9 14 1 0
BITMAP
FE00
8100
8080
8080
8080
8080
8080
8100
FE00
8000
8000
8000
8000
8000
ENDCHAR
STARTCHAR Q
ENCODING 81
SWIDTH 545 0
DWIDTH 12 0
BBX 11 14 1 0
BITMAP
1E00
2100
4080
4080
8040
8040
8040
8040
8040
8240
4180
4080
2140
1E20
ENDCHAR
STARTCHAR R
ENCODING 82
SWIDTH 545 0
DWIDTH 12 0
BBX 10 14 1 0
BITMAP
FE00
8100
8080
8080
8080
8080
8080
8100
FE00
8400
8200
8100
8080
8040
ENDCHAR
STARTCHAR S
ENCODING 83
SWIDTH 545 0
DWIDTH 12 0
BBX 9 14 1 0
BITMAP
3E00
4100
8080
8000
8000
4000
3E00
0100
0080
0080
0080
8080
4100
3E00
ENDCHAR
STARTCHAR T
ENCODING 84
SWIDTH 545 0
DWIDTH 12 0
BBX 10 14 1 0
BITMAP
FFC0
0800
0800
0800
0800
0800
0800
0800
0800
0800
0800
0800
0800
0800
ENDCHAR
STARTCHAR U
ENCODING 85
SWIDTH 545 0
DWIDTH 12 0
BBX 9 14 1 0
BITMAP
8080
8080
8080
8080
8080
8080
8080
8080
8080
8080
8080
8080
4100
3E00
ENDCHAR
STARTCHAR V
ENCODING 86
SWIDTH 636 0
DWIDTH 14 0
BBX 11 14 1 0
BITMAP
8020
8020
8020
4040
4040
4040
2080
2080
1100
1100
0A00
0A00
0400
0400
ENDCHAR
STARTCHAR W
ENCODING 87
SWIDTH 727 0
DWIDTH 16 0
BBX 15 14 0 0
BITMAP
8002
8002
8002
4104
4104
4104
2288
2288
2288
1450
1450
1450
0820
0820
ENDCHAR
STARTCHAR X
ENCODING 88
SWIDTH 545 0
DWIDTH 12 0
BBX 9 14 1 0
BITMAP
8080
8080
4100
2200
2200
1400
0800
0800
1400
2200
2200
4100
8080
8080
ENDCHAR
STARTCHAR Y
ENCODING 89
SWIDTH 545 0
DWIDTH 12 0
BBX 9 14 1 0
BITMAP
8080
8080
4100
4100
2200
2200
1400
1400
0800
0800
0800
0800
0800
0800
ENDCHAR
STARTCHAR Z
ENCODING 90
SWIDTH 454 0
DWIDTH 10 0
BBX 8 14 1 0
BITMAP
FF
01
02
02
04
08
08
10
10
20
40
40
80
FF
ENDCHAR
STARTCHAR bracketleft
ENCODING 91
SWIDTH 363 0
DWIDTH 8 0
BBX 3 16 2 -1
BITMAP
E0
80
80
80
80
80
80
80
80
80
80
80
80
80
80
E0
ENDCHAR
STARTCHAR backslash
ENCODING 92
SWIDTH 454 0
DWIDTH 10 0
BBX 7 14 1 0
BITMAP
80
80
40
40
20
20
10
10
08
08
04
04
02
02
ENDCHAR
STARTCHAR bracketright
ENCODING 93
SWIDTH 363 0
DWIDTH 8 0
BBX 3 16 3 -1
BITMAP
E0
20
20
20
20
20
20
20
20
20
20
20
20
20
20
E0
ENDCHAR
STARTCHAR asciicircum
ENCODING 94
SWIDTH 363 0
DWIDTH 8 0
BBX 5 3 1 11
BITMAP
20
50
88
ENDCHAR
STARTCHAR underscore
ENCODING 95
SWIDTH 545 0
DWIDTH 12 0
BBX 12 1 0 0
BITMAP
FFF0
ENDCHAR
STARTCHAR grave
ENCODING 96
SWIDTH 272 0
DWIDTH 6 0
BBX 3 3 1 11
BITMAP
80
40
20
ENDCHAR
STARTCHAR a
ENCODING 97
SWIDTH 454 0
DWIDTH 10 0
BBX 7 10 1 0
BITMAP
3C
42
82
0E
32
42
82
86
8A
72
ENDCHAR
STARTCHAR b
ENCODING 98
SWIDTH 454 0
DWIDTH 10 0
BBX 7 14 1 0
BITMAP
80
80
80
80
B8
C4
82
82
82
82
82
82
C4
B8
ENDCHAR
STARTCHAR c
ENCODING 99
SWIDTH 454 0
DWIDTH 10 0
BBX 7 10 1 0
BITMAP
3C
42
80
80
80
80
80
80
42
3C
ENDCHAR
STARTCHAR d
ENCODING 100
SWIDTH 454 0
DWIDTH 10 0
BBX 7 14 1 0
BITMAP
02
02
02
02
3A
46
82
82
82
82
82
82
46
3A
ENDCHAR
STARTCHAR e
ENCODING 101
SWIDTH 454 0
DWIDTH 10 0
BBX 7 10 1 0
BITMAP
38
44
82
82
FE
80
80
82
44
38
ENDCHAR
STARTCHAR f
ENCODING 102
SWIDTH 363 0
DWIDTH 8 0
BBX 7 14 1 0
BITMAP
1C
22
40
40
F0
40
40
40
40
40
40
40
40
40
ENDCHAR
STARTCHAR g
ENCODING 103
SWIDTH 454 0
DWIDTH 10 0
BBX 7 14 1 -4
BITMAP
3A
46
82
82
82
82
82
82
46
3A
02
02
44
38
ENDCHAR
STARTCHAR h
ENCODING 104
SWIDTH 454 0
DWIDTH 10 0
BBX 7 14 1 0
BITMAP
80
80
80
80
B8
C4
82
82
82
82
82
82
82
82
ENDCHAR
STARTCHAR i
ENCODING 105
SWIDTH 272 0
DWIDTH 6 0
BBX 2 14 1 0
BITMAP
40
40
00
00
C0
40
40
40
40
40
40
40
40
40
ENDCHAR
STARTCHAR j
ENCODING 106
SWIDTH 363 0
DWIDTH 8 0
BBX 5 18 0 -4
BITMAP
08
08
00
00
18
08
08
08
08
08
08
08
08
08
08
08
88
70
ENDCHAR
STARTCHAR k
ENCODING 107
SWIDTH 454 0
DWIDTH 10 0
BBX 7 14 1 0
BITMAP
80
80
80
80
84
88
90
A0
C0
A0
90
88
84
82
ENDCHAR
STARTCHAR l
ENCODING 108
SWIDTH 272 0
DWIDTH 6 0
BBX 2 14 1 0
BITMAP
C0
40
40
40
40
40
40
40
40
40
40
40
40
40
ENDCHAR
STARTCHAR m
ENCODING 109
SWIDTH 727 0
DWIDTH 16 0
BBX 13 10 1 0
BITMAP
B8E0
C510
8208
8208
8208
8208
8208
8208
8208
8208
ENDCHAR
STARTCHAR n
ENCODING 110
SWIDTH 454 0
DWIDTH 10 0
BBX 7 10 1 0
BITMAP
B8
C4
82
82
82
82
82
82
82
82
ENDCHAR
STARTCHAR o
ENCODING 111
SWIDTH 454 0
DWIDTH 10 0
BBX 7 10 1 0
BITMAP
38
44
82
82
82
82
82
82
44
38
ENDCHAR
STARTCHAR p
ENCODING 112
SWIDTH 454 0
DWIDTH 10 0
BBX 7 13 1 -3
BITMAP
B8
C4
82
82
82
82
82
82
C4
B8
80
80
80
ENDCHAR
STARTCHAR q
ENCODING 113
SWIDTH 454 0
DWIDTH 10 0
BBX 7 13 1 -3
BITMAP
3A
46
82
82
82
82
82
82
46
3A
02
02
02
ENDCHAR
STARTCHAR r
ENCODING 114
SWIDTH 454 0
DWIDTH 10 0
BBX 7 10 1 0
BITMAP
9C
A2
C2
80
80
80
80
80
80
80
ENDCHAR
STARTCHAR s
ENCODING 115
SWIDTH 454 0
DWIDTH 10 0
BBX 7 10 1 0
BITMAP
7C
82
80
80
7C
02
02
02
82
7C
ENDCHAR
STARTCHAR t
ENCODING 116
SWIDTH 363 0
DWIDTH 8 0
BBX 6 14 1 0
BITMAP
40
40
40
40
F0
40
40
40
40
40
40
40
44
38
ENDCHAR
STARTCHAR u
ENCODING 117
SWIDTH 454 0
DWIDTH 10 0
BBX 7 10 1 0
BITMAP
82
82
82
82
82
82
82
82
46
3A
ENDCHAR
STARTCHAR v
ENCODING 118
SWIDTH 454 0
DWIDTH 10 0
BBX 9 10 0 0
BITMAP
8080
8080
4100
4100
2200
2200
1400
1400
0800
0800
ENDCHAR
STARTCHAR w
ENCODING 119
SWIDTH 727 0
DWIDTH 16 0
BBX 13 10 1 0
BITMAP
8208
8208
4510
4510
28A0
28A0
28A0
1040
1040
1040
ENDCHAR
STARTCHAR x
ENCODING 120
SWIDTH 454 0
DWIDTH 10 0
BBX 7 10 1 0
BITMAP
82
82
44
28
10
28
44
44
82
82
ENDCHAR
STARTCHAR y
ENCODING 121
SWIDTH 545 0
DWIDTH 12 0
BBX 9 14 1 -4
BITMAP
8080
8080
4100
4100
2200
2200
1400
1400
0800
0800
1000
1000
2000
2000
ENDCHAR
STARTCHAR z
ENCODING 122
SWIDTH 454 0
DWIDTH 10 0
BBX 7 10 1 0
BITMAP
FE
02
04
08
10
20
40
80
80
FE
ENDCHAR
STARTCHAR braceleft
ENCODING 123
SWIDTH 363 0
DWIDTH 8 0
BBX 4 16 2 -1
BITMAP
30
40
40
40
40
40
40
80
40
40
40
40
40
40
40
30
ENDCHAR
STARTCHAR bar
ENCODING 124
SWIDTH 181 0
DWIDTH 4 0
BBX 1 16 2 -1
BITMAP
80
80
80
80
80
80
80
80
80
80
80
80
80
80
80
80
ENDCHAR
STARTCHAR braceright
ENCODING 125
SWIDTH 363 0
DWIDTH 8 0
BBX 4 16 3 -1
BITMAP
C0
20
20
20
20
20
20
10
20
20
20
20
20
20
20
C0
ENDCHAR
STARTCHAR asciitilde
ENCODING 126
SWIDTH 545 0
DWIDTH 12 0
BBX 8 2 2 12
BITMAP
71
8E
ENDCHAR
STARTCHAR char007f
ENCODING 127
SWIDTH 0 0
DWIDTH 0 0
BBX 0 0 -1 -4
BITMAP
ENDCHAR
STARTCHAR Adieresis
ENCODING 128
SWIDTH 636 0
DWIDTH 14 0
BBX 11 17 1 0
BITMAP
1100
0000
0000
0400
0400
0400
0A00
0A00
1100
1100
2080
2080
7FC0
4040
4040
8020
8020
ENDCHAR
STARTCHAR Aring
ENCODING 129
SWIDTH 636 0
DWIDTH 14 0
BBX 11 17 1 0
BITMAP
7FC0
0000
0000
0400
0400
0400
0A00
0A00
1100
1100
2080
2080
7FC0
4040
4040
8020
8020
ENDCHAR
STARTCHAR Ccedilla
ENCODING 130
SWIDTH 454 0
DWIDTH 10 0
BBX 7 13 1 0
BITMAP
FE
00
00
3C
42
82
0E
32
42
82
86
8A
72
ENDCHAR
STARTCHAR Eacute
ENCODING 131
SWIDTH 454 0
DWIDTH 10 0
BBX 7 18 1 0
BITMAP
04
08
10
00
FE
80
80
80
80
80
FC
80
80
80
80
80
80
FE
ENDCHAR
STARTCHAR Ntilde
ENCODING 132
SWIDTH 636 0
DWIDTH 14 0
BBX 11 17 1 -3
BITMAP
0400
0400
0400
0A00
0A00
1100
1100
2080
2080
7FC0
4040
4040
8060
8020
0040
0080
0060
ENDCHAR
STARTCHAR Odieresis
ENCODING 133
SWIDTH 545 0
DWIDTH 12 0
BBX 10 17 1 0
BITMAP
1200
1200
0000
1E00
2100
4080
4080
8040
8040
8040
8040
8040
8040
4080
4080
2100
1E00
ENDCHAR
STARTCHAR Udieresis
ENCODING 134
SWIDTH 545 0
DWIDTH 12 0
BBX 9 17 1 0
BITMAP
2200
2200
0000
8080
8080
8080
8080
8080
8080
8080
8080
8080
8080
8080
8080
4100
3E00
ENDCHAR
STARTCHAR aacute
ENCODING 135
SWIDTH 454 0
DWIDTH 10 0
BBX 7 15 1 0
BITMAP
04
08
10
00
00
3C
42
82
0E
32
42
82
86
8A
72
ENDCHAR
STARTCHAR agrave
ENCODING 136
SWIDTH 454 0
DWIDTH 10 0
BBX 7 13 1 -3
BITMAP
3C
42
82
0E
32
42
82
86
8A
72
04
08
06
ENDCHAR
STARTCHAR acircumflex
ENCODING 137
SWIDTH 545 0
DWIDTH 12 0
BBX 9 18 1 0
BITMAP
2200
1400
0800
0000
1E00
2100
4080
4000
8000
8000
8000
8000
8000
8000
4000
4080
2100
1E00
ENDCHAR
STARTCHAR adieresis
ENCODING 138
SWIDTH 454 0
DWIDTH 10 0
BBX 7 14 1 0
BITMAP
24
24
00
00
3C
42
82
0E
32
42
82
86
8A
72
ENDCHAR
STARTCHAR atilde
ENCODING 139
SWIDTH 454 0
DWIDTH 10 0
BBX 7 14 1 0
BITMAP
44
28
10
00
3C
42
80
80
80
80
80
80
42
3C
ENDCHAR
STARTCHAR aring
ENCODING 140
SWIDTH 545 0
DWIDTH 12 0
BBX 9 18 1 0
BITMAP
0200
0400
0800
0000
1E00
2100
4080
4000
8000
8000
8000
8000
8000
8000
4000
4080
2100
1E00
ENDCHAR
STARTCHAR ccedilla
ENCODING 141
SWIDTH 454 0
DWIDTH 10 0
BBX 7 15 1 0
BITMAP
04
08
10
00
00
3C
42
80
80
80
80
80
80
42
3C
ENDCHAR
STARTCHAR eacute
ENCODING 142
SWIDTH 454 0
DWIDTH 10 0
BBX 7 15 1 0
BITMAP
08
10
20
00
00
38
44
82
82
FE
80
80
80
44
38
ENDCHAR
STARTCHAR egrave
ENCODING 143
SWIDTH 454 0
DWIDTH 10 0
BBX 8 18 1 0
BITMAP
04
08
10
00
FF
01
02
02
04
08
08
10
10
20
40
40
80
FF
ENDCHAR
STARTCHAR ecircumflex
ENCODING 144
SWIDTH 454 0
DWIDTH 10 0
BBX 7 15 1 0
BITMAP
08
10
20
00
00
FE
02
04
08
10
20
40
80
80
FE
ENDCHAR
STARTCHAR edieresis
ENCODING 145
SWIDTH 545 0
DWIDTH 12 0
BBX 9 18 1 0
BITMAP
4400
2800
1000
0000
F800
8600
8100
8100
8080
8080
8080
8080
8080
8080
8100
8100
8600
F800
ENDCHAR
STARTCHAR iacute
ENCODING 146
SWIDTH 272 0
DWIDTH 6 0
BBX 3 15 1 0
BITMAP
20
40
80
00
00
C0
40
40
40
40
40
40
40
40
40
ENDCHAR
STARTCHAR igrave
ENCODING 147
SWIDTH 454 0
DWIDTH 10 0
BBX 10 16 1 0
BITMAP
00C0
0040
0240
0280
0200
0200
3A00
4600
8200
8200
8200
8200
8200
8200
4600
3A00
ENDCHAR
STARTCHAR icircumflex
ENCODING 148
SWIDTH 454 0
DWIDTH 10 0
BBX 7 17 1 0
BITMAP
FE
00
00
FE
80
80
80
80
80
FC
80
80
80
80
80
80
FE
ENDCHAR
STARTCHAR idieresis
ENCODING 149
SWIDTH 454 0
DWIDTH 10 0
BBX 7 13 1 0
BITMAP
FE
00
00
38
44
82
82
FE
80
80
82
44
38
ENDCHAR
STARTCHAR ntilde
ENCODING 150
SWIDTH 454 0
DWIDTH 10 0
BBX 7 18 1 0
BITMAP
30
30
00
00
FE
80
80
80
80
80
FC
80
80
80
80
80
80
FE
ENDCHAR
STARTCHAR oacute
ENCODING 151
SWIDTH 454 0
DWIDTH 10 0
BBX 7 15 1 0
BITMAP
08
10
20
00
00
38
44
82
82
82
82
82
82
44
38
ENDCHAR
STARTCHAR ograve
ENCODING 152
SWIDTH 454 0
DWIDTH 10 0
BBX 7 14 1 0
BITMAP
30
30
00
00
38
44
82
82
FE
80
80
82
44
38
ENDCHAR
STARTCHAR ocircumflex
ENCODING 153
SWIDTH 454 0
DWIDTH 10 0
BBX 7 15 1 0
BITMAP
10
28
44
00
00
38
44
82
82
82
82
82
82
44
38
ENDCHAR
STARTCHAR odieresis
ENCODING 154
SWIDTH 454 0
DWIDTH 10 0
BBX 7 14 1 0
BITMAP
44
44
00
00
38
44
82
82
82
82
82
82
44
38
ENDCHAR
STARTCHAR otilde
ENCODING 155
SWIDTH 454 0
DWIDTH 10 0
BBX 7 14 1 0
BITMAP
32
4C
00
00
38
44
82
82
82
82
82
82
44
38
ENDCHAR
STARTCHAR uacute
ENCODING 156
SWIDTH 454 0
DWIDTH 10 0
BBX 7 15 1 0
BITMAP
08
10
20
00
00
82
82
82
82
82
82
82
82
46
3A
ENDCHAR
STARTCHAR ugrave
ENCODING 157
SWIDTH 454 0
DWIDTH 10 0
BBX 7 18 1 0
BITMAP
44
28
10
00
FE
80
80
80
80
80
FC
80
80
80
80
80
80
FE
ENDCHAR
STARTCHAR ucircumflex
ENCODING 158
SWIDTH 454 0
DWIDTH 10 0
BBX 7 15 1 0
BITMAP
44
28
10
00
00
38
44
82
82
FE
80
80
82
44
38
ENDCHAR
STARTCHAR udieresis
ENCODING 159
SWIDTH 454 0
DWIDTH 10 0
BBX 7 14 1 0
BITMAP
44
44
00
00
82
82
82
82
82
82
82
82
46
3A
ENDCHAR
STARTCHAR dagger
ENCODING 160
SWIDTH 363 0
DWIDTH 8 0
BBX 3 7 2 8
BITMAP
40
40
E0
40
40
40
40
ENDCHAR
STARTCHAR degree
ENCODING 161
SWIDTH 363 0
DWIDTH 8 0
BBX 4 4 1 10
BITMAP
60
90
90
60
ENDCHAR
STARTCHAR cent
ENCODING 162
SWIDTH 454 0
DWIDTH 10 0
BBX 7 17 1 -3
BITMAP
FE
80
80
80
80
80
FC
80
80
80
80
80
80
FE
08
10
0C
ENDCHAR
STARTCHAR sterling
ENCODING 163
SWIDTH 545 0
DWIDTH 12 0
BBX 9 14 1 0
BITMAP
1C00
2200
4000
4000
4000
4000
F000
4000
4000
4000
4000
4080
4100
FE00
ENDCHAR
STARTCHAR section
ENCODING 164
SWIDTH 545 0
DWIDTH 12 0
BBX 8 14 2 0
BITMAP
3C
42
81
80
60
98
86
61
19
06
01
81
42
3C
ENDCHAR
STARTCHAR bullet
ENCODING 165
SWIDTH 545 0
DWIDTH 12 0
BBX 9 9 1 2
BITMAP
1C00
7F00
7F00
FF80
FF80
FF80
7F00
7F00
1C00
ENDCHAR
STARTCHAR paragraph
ENCODING 166
SWIDTH 545 0
DWIDTH 12 0
BBX 9 14 1 0
BITMAP
1F80
2500
4500
8500
8500
8500
8500
4500
2500
1D00
0500
0500
0500
0500
ENDCHAR
STARTCHAR germandbls
ENCODING 167
SWIDTH 545 0
DWIDTH 12 0
BBX 10 14 1 0
BITMAP
1E00
2100
4080
4080
4100
4600
4100
4080
4040
4040
4040
4040
4080
8F00
ENDCHAR
STARTCHAR registered
ENCODING 168
SWIDTH 727 0
DWIDTH 16 0
BBX 12 12 2 0
BITMAP
0F00
30C0
4020
4E20
8910
8910
8E10
8910
4920
4020
30C0
0F00
ENDCHAR
STARTCHAR copyright
ENCODING 169
SWIDTH 727 0
DWIDTH 16 0
BBX 12 12 2 0
BITMAP
0F00
30C0
4020
4620
8910
8810
8810
8910
4620
4020
30C0
0F00
ENDCHAR
STARTCHAR trademark
ENCODING 170
SWIDTH 818 0
DWIDTH 18 0
BBX 13 5 1 9
BITMAP
FA08
2318
22A8
2248
2208
ENDCHAR
STARTCHAR acute
ENCODING 171
SWIDTH 454 0
DWIDTH 10 0
BBX 7 13 1 -3
BITMAP
38
44
82
82
FE
80
80
82
44
38
10
20
18
ENDCHAR
STARTCHAR dieresis
ENCODING 172
SWIDTH 454 0
DWIDTH 10 0
BBX 4 2 3 15
BITMAP
90
90
ENDCHAR
STARTCHAR notequal
ENCODING 173
SWIDTH 454 0
DWIDTH 10 0
BBX 8 8 1 3
BITMAP
02
04
FF
08
10
FF
20
40
ENDCHAR
STARTCHAR AE
ENCODING 174
SWIDTH 454 0
DWIDTH 10 0
BBX 7 19 1 -4
BITMAP
08
10
18
00
00
3A
46
82
82
82
82
82
82
46
3A
02
02
44
38
ENDCHAR
STARTCHAR Oslash
ENCODING 175
SWIDTH 272 0
DWIDTH 6 0
BBX 3 17 1 -3
BITMAP
40
40
40
40
40
40
40
40
40
40
40
40
40
40
40
80
60
ENDCHAR
STARTCHAR infinity
ENCODING 176
SWIDTH 272 0
DWIDTH 6 0
BBX 3 17 1 -3
BITMAP
40
40
00
00
C0
40
40
40
40
40
40
40
40
40
40
80
60
ENDCHAR
STARTCHAR plusminus
ENCODING 177
SWIDTH 272 0
DWIDTH 6 0
BBX 3 17 1 0
BITMAP
E0
00
00
40
40
40
40
40
40
40
40
40
40
40
40
40
40
ENDCHAR
STARTCHAR lessequal
ENCODING 178
SWIDTH 454 0
DWIDTH 10 0
BBX 6 11 2 0
BITMAP
08
10
20
40
80
40
20
10
08
00
FC
ENDCHAR
STARTCHAR greaterequal
ENCODING 179
SWIDTH 454 0
DWIDTH 10 0
BBX 6 11 2 0
BITMAP
40
20
10
08
04
08
10
20
40
00
FC
ENDCHAR
STARTCHAR yen
ENCODING 180
SWIDTH 272 0
DWIDTH 6 0
BBX 3 13 1 0
BITMAP
E0
00
00
C0
40
40
40
40
40
40
40
40
40
ENDCHAR
STARTCHAR mu
ENCODING 181
SWIDTH 545 0
DWIDTH 12 0
BBX 9 18 1 -4
BITMAP
8100
8200
8400
8800
9000
A000
C000
A000
9000
8800
8400
8200
8100
8080
0000
1800
0800
1000
ENDCHAR
STARTCHAR partialdiff
ENCODING 182
SWIDTH 454 0
DWIDTH 10 0
BBX 8 14 0 0
BITMAP
70
08
04
02
1E
21
41
81
81
81
81
81
42
3C
ENDCHAR
STARTCHAR summation
ENCODING 183
SWIDTH 545 0
DWIDTH 12 0
BBX 10 14 0 0
BITMAP
FFC0
4040
2040
1000
0800
0400
0200
0200
0400
0800
1000
2040
4040
FFC0
ENDCHAR
STARTCHAR product
ENCODING 184
SWIDTH 272 0
DWIDTH 6 0
BBX 5 14 0 0
BITMAP
60
20
20
38
E0
20
20
20
20
20
20
20
20
20
ENDCHAR
STARTCHAR pi
ENCODING 185
SWIDTH 454 0
DWIDTH 10 0
BBX 7 18 1 -4
BITMAP
80
80
80
80
80
80
80
80
80
80
80
80
80
FE
00
30
10
20
ENDCHAR
STARTCHAR integral
ENCODING 186
SWIDTH 272 0
DWIDTH 6 0
BBX 3 18 1 -4
BITMAP
C0
40
40
40
40
40
40
40
40
40
40
40
40
40
00
60
20
40
ENDCHAR
STARTCHAR ordfeminine
ENCODING 187
SWIDTH 454 0
DWIDTH 10 0
BBX 7 15 1 0
BITMAP
18
88
88
90
80
80
80
80
80
80
80
80
80
80
FE
ENDCHAR
STARTCHAR ordmasculine
ENCODING 188
SWIDTH 272 0
DWIDTH 6 0
BBX 5 16 1 0
BITMAP
18
08
C8
50
40
40
40
40
40
40
40
40
40
40
40
40
ENDCHAR
STARTCHAR Omega
ENCODING 189
SWIDTH 454 0
DWIDTH 10 0
BBX 7 18 1 0
BITMAP
10
20
40
00
80
80
80
80
80
80
80
80
80
80
80
80
80
FE
ENDCHAR
STARTCHAR ae
ENCODING 190
SWIDTH 272 0
DWIDTH 6 0
BBX 3 18 1 0
BITMAP
20
40
80
00
C0
40
40
40
40
40
40
40
40
40
40
40
40
40
ENDCHAR
STARTCHAR oslash
ENCODING 191
SWIDTH 545 0
DWIDTH 12 0
BBX 9 18 1 -4
BITMAP
8080
C080
C080
A080
A080
9080
8880
8880
8480
8280
8280
8180
8180
8080
0000
1800
0800
1000
ENDCHAR
STARTCHAR questiondown
ENCODING 192
SWIDTH 454 0
DWIDTH 10 0
BBX 7 14 1 -4
BITMAP
B8
C4
82
82
82
82
82
82
82
82
00
30
10
20
ENDCHAR
STARTCHAR exclamdown
ENCODING 193
SWIDTH 545 0
DWIDTH 12 0
BBX 9 18 1 0
BITMAP
0400
0800
1000
0000
8080
C080
C080
A080
A080
9080
8880
8880
8480
8280
8280
8180
8180
8080
ENDCHAR
STARTCHAR logicalnot
ENCODING 194
SWIDTH 454 0
DWIDTH 10 0
BBX 8 5 1 3
BITMAP
FF
01
01
01
01
ENDCHAR
STARTCHAR radical
ENCODING 195
SWIDTH 727 0
DWIDTH 16 0
BBX 13 16 1 0
BITMAP
0038
0020
0040
0040
0040
0080
0080
0080
0100
2100
5100
9200
0A00
0A00
0400
0400
ENDCHAR
STARTCHAR florin
ENCODING 196
SWIDTH 454 0
DWIDTH 10 0
BBX 7 15 1 0
BITMAP
08
10
20
00
00
B8
C4
82
82
82
82
82
82
82
82
ENDCHAR
STARTCHAR approxequal
ENCODING 197
SWIDTH 545 0
DWIDTH 12 0
BBX 9 18 1 0
BITMAP
2200
1400
0800
0000
8080
C080
C080
A080
A080
9080
8880
8880
8480
8280
8280
8180
8180
8080
ENDCHAR
STARTCHAR Delta
ENCODING 198
SWIDTH 636 0
DWIDTH 14 0
BBX 11 12 1 0
BITMAP
0400
0400
0A00
0A00
1100
1100
2080
2080
4040
4040
8020
FFE0
ENDCHAR
STARTCHAR guillemotleft
ENCODING 199
SWIDTH 636 0
DWIDTH 14 0
BBX 10 11 2 0
BITMAP
0440
0880
1100
2200
4400
8800
4400
2200
1100
0880
0440
ENDCHAR
STARTCHAR guillemotright
ENCODING 200
SWIDTH 636 0
DWIDTH 14 0
BBX 10 11 2 0
BITMAP
8800
4400
2200
1100
0880
0440
0880
1100
2200
4400
8800
ENDCHAR
STARTCHAR ellipsis
ENCODING 201
SWIDTH 727 0
DWIDTH 16 0
BBX 11 2 3 0
BITMAP
8420
8420
ENDCHAR
STARTCHAR nbspace
ENCODING 202
SWIDTH 545 0
DWIDTH 12 0
BBX 0 0 -1 -4
BITMAP
ENDCHAR
STARTCHAR Agrave
ENCODING 203
SWIDTH 454 0
DWIDTH 10 0
BBX 7 15 1 0
BITMAP
44
28
10
00
00
B8
C4
82
82
82
82
82
82
82
82
ENDCHAR
STARTCHAR Atilde
ENCODING 204
SWIDTH 545 0
DWIDTH 12 0
BBX 10 18 1 0
BITMAP
0880
1100
2200
0000
1E00
2100
4080
4080
8040
8040
8040
8040
8040
8040
4080
4080
2100
1E00
ENDCHAR
STARTCHAR Otilde
ENCODING 205
SWIDTH 545 0
DWIDTH 12 0
BBX 10 18 1 0
BITMAP
3880
4700
0000
0000
1E00
2100
4080
4080
8040
8040
8040
8040
8040
8040
4080
4080
2100
1E00
ENDCHAR
STARTCHAR OE
ENCODING 206
SWIDTH 454 0
DWIDTH 10 0
BBX 8 15 1 0
BITMAP
11
22
44
00
00
38
44
82
82
82
82
82
82
44
38
ENDCHAR
STARTCHAR oe
ENCODING 207
SWIDTH 545 0
DWIDTH 12 0
BBX 10 17 1 0
BITMAP
7F80
0000
0000
1E00
2100
4080
4080
8040
8040
8040
8040
8040
8040
4080
4080
2100
1E00
ENDCHAR
STARTCHAR endash
ENCODING 208
SWIDTH 454 0
DWIDTH 10 0
BBX 7 1 1 6
BITMAP
FE
ENDCHAR
STARTCHAR emdash
ENCODING 209
SWIDTH 636 0
DWIDTH 14 0
BBX 14 1 0 6
BITMAP
FFFC
ENDCHAR
STARTCHAR quotedblleft
ENCODING 210
SWIDTH 636 0
DWIDTH 14 0
BBX 6 4 5 10
BITMAP
44
88
88
CC
ENDCHAR
STARTCHAR quotedblright
ENCODING 211
SWIDTH 636 0
DWIDTH 14 0
BBX 6 4 3 10
BITMAP
CC
44
44
88
ENDCHAR
STARTCHAR quoteleft
ENCODING 212
SWIDTH 363 0
DWIDTH 8 0
BBX 2 4 4 10
BITMAP
40
80
80
C0
ENDCHAR
STARTCHAR quoteright
ENCODING 213
SWIDTH 363 0
DWIDTH 8 0
BBX 2 4 2 10
BITMAP
C0
40
40
80
ENDCHAR
STARTCHAR divide
ENCODING 214
SWIDTH 454 0
DWIDTH 10 0
BBX 7 9 1 3
BITMAP
10
10
00
00
FE
00
00
10
10
ENDCHAR
STARTCHAR lozenge
ENCODING 215
SWIDTH 727 0
DWIDTH 16 0
BBX 11 11 1 1
BITMAP
0400
0A00
1100
2080
4040
8020
4040
2080
1100
0A00
0400
ENDCHAR
STARTCHAR ydieresis
ENCODING 216
SWIDTH 454 0
DWIDTH 10 0
BBX 7 13 1 0
BITMAP
FE
00
00
38
44
82
82
82
82
82
82
44
38
ENDCHAR
STARTCHAR Ydieresis
ENCODING 217
SWIDTH 545 0
DWIDTH 12 0
BBX 10 18 1 0
BITMAP
0400
0800
1000
0000
FE00
8100
8080
8080
8080
8080
8080
8100
FE00
8400
8200
8100
8080
8040
ENDCHAR
STARTCHAR fraction
ENCODING 218
SWIDTH 454 0
DWIDTH 10 0
BBX 7 15 1 0
BITMAP
08
10
20
00
00
9C
A2
C2
80
80
80
80
80
80
80
ENDCHAR
STARTCHAR currency
ENCODING 219
SWIDTH 545 0
DWIDTH 12 0
BBX 10 18 1 0
BITMAP
4400
2800
1000
0000
FE00
8100
8080
8080
8080
8080
8080
8100
FE00
8400
8200
8100
8080
8040
ENDCHAR
STARTCHAR guilsinglleft
ENCODING 220
SWIDTH 545 0
DWIDTH 12 0
BBX 8 15 2 0
BITMAP
01
02
04
08
10
20
40
80
40
20
10
08
04
02
01
ENDCHAR
STARTCHAR guilsinglright
ENCODING 221
SWIDTH 545 0
DWIDTH 12 0
BBX 8 15 2 0
BITMAP
80
40
20
10
08
04
02
01
02
04
08
10
20
40
80
ENDCHAR
STARTCHAR fi
ENCODING 222
SWIDTH 454 0
DWIDTH 10 0
BBX 7 15 1 0
BITMAP
44
28
10
00
00
9C
A2
C2
80
80
80
80
80
80
80
ENDCHAR
STARTCHAR fl
ENCODING 223
SWIDTH 545 0
DWIDTH 12 0
BBX 10 18 1 -4
BITMAP
FE00
8100
8080
8080
8080
8080
8080
8100
FE00
8400
8200
8100
8080
8040
0000
1800
0800
1000
ENDCHAR
STARTCHAR daggerdbl
ENCODING 224
SWIDTH 454 0
DWIDTH 10 0
BBX 7 14 1 -4
BITMAP
9C
A2
C2
80
80
80
80
80
80
80
00
30
10
20
ENDCHAR
STARTCHAR periodcentered
ENCODING 225
SWIDTH 545 0
DWIDTH 12 0
BBX 9 18 1 0
BITMAP
2200
1400
0800
0000
3E00
4100
8080
8000
8000
4000
3E00
0100
0080
0080
0080
8080
4100
3E00
ENDCHAR
STARTCHAR quotesinglbase
ENCODING 226
SWIDTH 272 0
DWIDTH 6 0
BBX 2 4 2 -2
BITMAP
C0
40
40
80
ENDCHAR
STARTCHAR quotedblbase
ENCODING 227
SWIDTH 636 0
DWIDTH 14 0
BBX 6 4 3 -2
BITMAP
CC
44
44
88
ENDCHAR
STARTCHAR perthousand
ENCODING 228
SWIDTH 454 0
DWIDTH 10 0
BBX 7 15 1 0
BITMAP
44
28
10
00
00
7C
82
80
80
7C
02
02
02
82
7C
ENDCHAR
STARTCHAR Acircumflex
ENCODING 229
SWIDTH 545 0
DWIDTH 12 0
BBX 9 18 1 0
BITMAP
0400
0800
1000
0000
3E00
4100
8080
8000
8000
4000
3E00
0100
0080
0080
0080
8080
4100
3E00
ENDCHAR
STARTCHAR Ecircumflex
ENCODING 230
SWIDTH 454 0
DWIDTH 10 0
BBX 7 15 1 0
BITMAP
08
10
20
00
00
7C
82
80
80
7C
02
02
02
82
7C
ENDCHAR
STARTCHAR Aacute
ENCODING 231
SWIDTH 636 0
DWIDTH 14 0
BBX 11 18 1 0
BITMAP
0200
0400
0800
0000
0400
0400
0400
0A00
0A00
1100
1100
2080
2080
7FC0
4040
4040
8020
8020
ENDCHAR
STARTCHAR Edieresis
ENCODING 232
SWIDTH 545 0
DWIDTH 12 0
BBX 10 18 1 0
BITMAP
2200
1400
0800
0000
FFC0
0800
0800
0800
0800
0800
0800
0800
0800
0800
0800
0800
0800
0800
ENDCHAR
STARTCHAR Egrave
ENCODING 233
SWIDTH 363 0
DWIDTH 8 0
BBX 6 16 1 0
BITMAP
0C
04
44
48
40
40
F0
40
40
40
40
40
40
40
44
38
ENDCHAR
STARTCHAR Iacute
ENCODING 234
SWIDTH 272 0
DWIDTH 6 0
BBX 3 18 2 0
BITMAP
20
40
80
00
80
80
80
80
80
80
80
80
80
80
80
80
80
80
ENDCHAR
STARTCHAR Icircumflex
ENCODING 235
SWIDTH 454 0
DWIDTH 10 0
BBX 8 18 1 0
BITMAP
44
28
10
00
FF
01
02
02
04
08
08
10
10
20
40
40
80
FF
ENDCHAR
STARTCHAR Idieresis
ENCODING 236
SWIDTH 454 0
DWIDTH 10 0
BBX 7 15 1 0
BITMAP
44
28
10
00
00
FE
02
04
08
10
20
40
80
80
FE
ENDCHAR
STARTCHAR Igrave
ENCODING 237
SWIDTH 545 0
DWIDTH 12 0
BBX 9 17 1 0
BITMAP
7F00
0000
0000
8080
8080
8080
8080
8080
8080
8080
8080
8080
8080
8080
8080
4100
3E00
ENDCHAR
STARTCHAR Oacute
ENCODING 238
SWIDTH 545 0
DWIDTH 12 0
BBX 10 18 1 0
BITMAP
0200
0400
0800
0000
1E00
2100
4080
4080
8040
8040
8040
8040
8040
8040
4080
4080
2100
1E00
ENDCHAR
STARTCHAR Ocircumflex
ENCODING 239
SWIDTH 545 0
DWIDTH 12 0
BBX 10 18 1 0
BITMAP
0C00
1200
2100
0000
1E00
2100
4080
4080
8040
8040
8040
8040
8040
8040
4080
4080
2100
1E00
ENDCHAR
STARTCHAR apple
ENCODING 240
SWIDTH 454 0
DWIDTH 10 0
BBX 7 13 1 0
BITMAP
FE
00
00
82
82
82
82
82
82
82
82
46
3A
ENDCHAR
STARTCHAR Ograve
ENCODING 241
SWIDTH 545 0
DWIDTH 12 0
BBX 9 18 1 0
BITMAP
1C00
2200
2200
2200
9C80
8080
8080
8080
8080
8080
8080
8080
8080
8080
8080
8080
4100
3E00
ENDCHAR
STARTCHAR Uacute
ENCODING 242
SWIDTH 545 0
DWIDTH 12 0
BBX 9 18 1 0
BITMAP
0400
0800
1000
0000
8080
8080
8080
8080
8080
8080
8080
8080
8080
8080
8080
8080
4100
3E00
ENDCHAR
STARTCHAR Ucircumflex
ENCODING 243
SWIDTH 454 0
DWIDTH 10 0
BBX 7 15 1 0
BITMAP
18
24
24
18
00
82
82
82
82
82
82
82
82
46
3A
ENDCHAR
STARTCHAR Ugrave
ENCODING 244
SWIDTH 545 0
DWIDTH 12 0
BBX 9 18 1 0
BITMAP
1080
2100
4200
0000
8080
8080
8080
8080
8080
8080
8080
8080
8080
8080
8080
8080
4100
3E00
ENDCHAR
STARTCHAR dotlessi
ENCODING 245
SWIDTH 454 0
DWIDTH 10 0
BBX 8 15 1 0
BITMAP
11
22
44
00
00
82
82
82
82
82
82
82
82
46
3A
ENDCHAR
STARTCHAR circumflex
ENCODING 246
SWIDTH 545 0
DWIDTH 12 0
BBX 9 17 1 -3
BITMAP
8080
8080
8080
8080
8080
8080
8080
8080
8080
8080
8080
8080
4100
3E00
0800
1000
0C00
ENDCHAR
STARTCHAR tilde
ENCODING 247
SWIDTH 454 0
DWIDTH 10 0
BBX 7 13 1 -3
BITMAP
82
82
82
82
82
82
82
82
46
3A
10
20
18
ENDCHAR
STARTCHAR macron
ENCODING 248
SWIDTH 545 0
DWIDTH 12 0
BBX 9 18 1 0
BITMAP
0400
0800
1000
0000
8080
8080
4100
4100
2200
2200
1400
1400
0800
0800
0800
0800
0800
0800
ENDCHAR
STARTCHAR breve
ENCODING 249
SWIDTH 545 0
DWIDTH 12 0
BBX 9 19 1 -4
BITMAP
0400
0800
1000
0000
0000
8080
8080
4100
4100
2200
2200
1400
1400
0800
0800
1000
1000
2000
2000
ENDCHAR
STARTCHAR dotaccent
ENCODING 250
SWIDTH 454 0
DWIDTH 10 0
BBX 7 18 1 -4
BITMAP
80
80
80
80
84
88
90
A0
C0
A0
90
88
84
82
00
30
10
20
ENDCHAR
STARTCHAR ring
ENCODING 251
SWIDTH 454 0
DWIDTH 10 0
BBX 8 18 1 0
BITMAP
18
18
00
00
FF
01
02
02
04
08
08
10
10
20
40
40
80
FF
ENDCHAR
STARTCHAR cedilla
ENCODING 252
SWIDTH 454 0
DWIDTH 10 0
BBX 9 14 -1 0
BITMAP
2000
2000
2000
2000
2000
3800
E000
2000
2000
2000
2000
2000
2000
3F80
ENDCHAR
STARTCHAR hungarumlaut
ENCODING 253
SWIDTH 454 0
DWIDTH 10 0
BBX 7 14 1 0
BITMAP
30
30
00
00
FE
02
04
08
10
20
40
80
80
FE
ENDCHAR
STARTCHAR ogonek
ENCODING 254
SWIDTH 545 0
DWIDTH 12 0
BBX 9 18 1 -4
BITMAP
1E00
2100
4080
4000
8000
8000
8F80
8080
8080
8080
4080
4080
2100
1E00
0000
0C00
0400
0800
ENDCHAR
STARTCHAR caron
ENCODING 255
SWIDTH 363 0
DWIDTH 8 0
BBX 5 3 1 15
BITMAP
88
50
20
ENDCHAR
ENDFONT
